<mxfile host="65bd71144e">
    <diagram id="Xdzq0T5rtHVKRT2HmKXS" name="第 1 页">
        <mxGraphModel dx="1294" dy="941" grid="1" gridSize="10" guides="1" tooltips="1" connect="1" arrows="1" fold="1" page="1" pageScale="1" pageWidth="827" pageHeight="1169" math="0" shadow="0">
            <root>
                <mxCell id="0"/>
                <mxCell id="1" parent="0"/>
                <mxCell id="1174" value="" style="rounded=0;whiteSpace=wrap;html=1;fontFamily=JetBrains Mono;" parent="1" vertex="1">
                    <mxGeometry x="240" y="130" width="320" height="510" as="geometry"/>
                </mxCell>
                <mxCell id="1175" value="&lt;div style=&quot;color: rgb(59, 59, 59); background-color: rgb(255, 255, 255); font-size: 16px; line-height: 22px;&quot;&gt;&lt;br&gt;&lt;/div&gt;" style="rounded=0;whiteSpace=wrap;html=1;fontFamily=JetBrains Mono;" parent="1" vertex="1">
                    <mxGeometry x="240" y="640" width="320" height="40" as="geometry"/>
                </mxCell>
                <mxCell id="1176" value="" style="rounded=0;whiteSpace=wrap;html=1;fontSize=16;fontFamily=JetBrains Mono;" parent="1" vertex="1">
                    <mxGeometry x="240" y="680" width="320" height="200" as="geometry"/>
                </mxCell>
                <mxCell id="1177" value="" style="edgeStyle=none;html=1;fontSize=18;fontFamily=JetBrains Mono;" parent="1" source="1178" target="1176" edge="1">
                    <mxGeometry relative="1" as="geometry"/>
                </mxCell>
                <mxCell id="1178" value="&lt;font&gt;getbuf&lt;/font&gt;&lt;font face=&quot;思源黑体&quot;&gt;分配的40bits空间&lt;/font&gt;" style="text;html=1;strokeColor=none;fillColor=none;align=center;verticalAlign=middle;whiteSpace=wrap;rounded=0;fontSize=18;fontFamily=JetBrains Mono;" parent="1" vertex="1">
                    <mxGeometry x="90" y="765" width="110" height="30" as="geometry"/>
                </mxCell>
                <mxCell id="1179" style="edgeStyle=none;html=1;exitX=1;exitY=0.5;exitDx=0;exitDy=0;entryX=0;entryY=0.5;entryDx=0;entryDy=0;fontSize=18;fontFamily=JetBrains Mono;" parent="1" target="1175" edge="1">
                    <mxGeometry relative="1" as="geometry">
                        <mxPoint x="200" y="660" as="sourcePoint"/>
                    </mxGeometry>
                </mxCell>
                <mxCell id="1181" style="edgeStyle=none;html=1;exitX=1;exitY=0.5;exitDx=0;exitDy=0;entryX=0;entryY=1;entryDx=0;entryDy=0;fontSize=18;fontFamily=JetBrains Mono;" parent="1" source="1182" target="1176" edge="1">
                    <mxGeometry relative="1" as="geometry"/>
                </mxCell>
                <mxCell id="1182" value="&lt;font&gt;%rsp&lt;br&gt;&lt;/font&gt;" style="text;html=1;strokeColor=none;fillColor=none;align=center;verticalAlign=middle;whiteSpace=wrap;rounded=0;fontSize=18;fontFamily=JetBrains Mono;" parent="1" vertex="1">
                    <mxGeometry x="140" y="860" width="60" height="40" as="geometry"/>
                </mxCell>
                <mxCell id="1183" value="&lt;span style=&quot;color: rgb(59, 59, 59); font-size: 16px; background-color: rgb(255, 255, 255);&quot;&gt;00&lt;/span&gt;" style="rounded=0;whiteSpace=wrap;html=1;fontSize=18;fontFamily=JetBrains Mono;" parent="1" vertex="1">
                    <mxGeometry x="240" y="640" width="40" height="40" as="geometry"/>
                </mxCell>
                <mxCell id="1184" value="&lt;span style=&quot;color: rgb(59, 59, 59); font-size: 16px; background-color: rgb(255, 255, 255);&quot;&gt;00&lt;/span&gt;" style="rounded=0;whiteSpace=wrap;html=1;fontSize=18;fontFamily=JetBrains Mono;" parent="1" vertex="1">
                    <mxGeometry x="280" y="640" width="40" height="40" as="geometry"/>
                </mxCell>
                <mxCell id="1185" value="&lt;span style=&quot;font-size: 16px;&quot;&gt;00&lt;/span&gt;" style="rounded=0;whiteSpace=wrap;html=1;fontSize=18;fillColor=#d5e8d4;strokeColor=#000000;fontColor=default;labelBackgroundColor=none;labelBorderColor=none;fontFamily=JetBrains Mono;" parent="1" vertex="1">
                    <mxGeometry x="320" y="640" width="40" height="40" as="geometry"/>
                </mxCell>
                <mxCell id="1186" value="&lt;span style=&quot;font-size: 16px;&quot;&gt;00&lt;/span&gt;" style="rounded=0;whiteSpace=wrap;html=1;fontSize=18;fillColor=#d5e8d4;strokeColor=#000000;fontColor=default;labelBackgroundColor=none;labelBorderColor=none;fontFamily=JetBrains Mono;" parent="1" vertex="1">
                    <mxGeometry x="360" y="640" width="40" height="40" as="geometry"/>
                </mxCell>
                <mxCell id="1187" value="&lt;font&gt;&lt;span style=&quot;font-size: 16px;&quot;&gt;00&lt;/span&gt;&lt;/font&gt;" style="rounded=0;whiteSpace=wrap;html=1;fontSize=18;fillColor=#d5e8d4;strokeColor=#000000;labelBackgroundColor=none;labelBorderColor=none;fontFamily=JetBrains Mono;" parent="1" vertex="1">
                    <mxGeometry x="400" y="640" width="40" height="40" as="geometry"/>
                </mxCell>
                <mxCell id="1188" value="&lt;font&gt;&lt;span style=&quot;font-size: 16px;&quot;&gt;40&lt;/span&gt;&lt;/font&gt;" style="rounded=0;whiteSpace=wrap;html=1;fontSize=18;fillColor=#d5e8d4;strokeColor=#000000;labelBackgroundColor=none;labelBorderColor=none;fontFamily=JetBrains Mono;" parent="1" vertex="1">
                    <mxGeometry x="440" y="640" width="40" height="40" as="geometry"/>
                </mxCell>
                <mxCell id="1189" value="&lt;font&gt;&lt;span style=&quot;font-size: 16px;&quot;&gt;1A&lt;/span&gt;&lt;/font&gt;" style="rounded=0;whiteSpace=wrap;html=1;fontSize=18;fillColor=#d5e8d4;strokeColor=#000000;labelBackgroundColor=none;labelBorderColor=none;fontFamily=JetBrains Mono;" parent="1" vertex="1">
                    <mxGeometry x="480" y="640" width="40" height="40" as="geometry"/>
                </mxCell>
                <mxCell id="1190" value="&lt;span style=&quot;font-size: 16px;&quot;&gt;06&lt;/span&gt;" style="rounded=0;whiteSpace=wrap;html=1;fontSize=18;fillColor=#d5e8d4;strokeColor=#000000;labelBackgroundColor=none;labelBorderColor=none;fontFamily=JetBrains Mono;" parent="1" vertex="1">
                    <mxGeometry x="520" y="640" width="40" height="40" as="geometry"/>
                </mxCell>
                <mxCell id="1191" value="&lt;span style=&quot;font-size: 16px;&quot;&gt;00&lt;/span&gt;" style="rounded=0;whiteSpace=wrap;html=1;fontSize=18;fillColor=#d5e8d4;strokeColor=#000000;fontColor=default;labelBackgroundColor=none;labelBorderColor=none;fontFamily=JetBrains Mono;" parent="1" vertex="1">
                    <mxGeometry x="240" y="640" width="40" height="40" as="geometry"/>
                </mxCell>
                <mxCell id="1192" value="&lt;span style=&quot;font-size: 16px;&quot;&gt;00&lt;/span&gt;" style="rounded=0;whiteSpace=wrap;html=1;fontSize=18;fillColor=#d5e8d4;strokeColor=#000000;fontColor=default;labelBackgroundColor=none;labelBorderColor=none;fontFamily=JetBrains Mono;" parent="1" vertex="1">
                    <mxGeometry x="280" y="640" width="40" height="40" as="geometry"/>
                </mxCell>
                <mxCell id="1211" value="&lt;span style=&quot;font-size: 16px;&quot;&gt;00&lt;/span&gt;" style="rounded=0;whiteSpace=wrap;html=1;fontSize=18;labelBackgroundColor=none;labelBorderColor=none;fillColor=#fff2cc;strokeColor=#000000;fontFamily=JetBrains Mono;" parent="1" vertex="1">
                    <mxGeometry x="240" y="760" width="40" height="40" as="geometry"/>
                </mxCell>
                <mxCell id="1212" value="&lt;span style=&quot;font-size: 16px;&quot;&gt;00&lt;/span&gt;" style="rounded=0;whiteSpace=wrap;html=1;fontSize=18;labelBackgroundColor=none;labelBorderColor=none;fillColor=#fff2cc;strokeColor=#000000;fontFamily=JetBrains Mono;" parent="1" vertex="1">
                    <mxGeometry x="280" y="760" width="40" height="40" as="geometry"/>
                </mxCell>
                <mxCell id="1213" value="&lt;span style=&quot;font-size: 16px;&quot;&gt;00&lt;/span&gt;" style="rounded=0;whiteSpace=wrap;html=1;fontSize=18;labelBackgroundColor=none;labelBorderColor=none;fillColor=#fff2cc;strokeColor=#000000;fontFamily=JetBrains Mono;" parent="1" vertex="1">
                    <mxGeometry x="320" y="760" width="40" height="40" as="geometry"/>
                </mxCell>
                <mxCell id="1214" value="&lt;span style=&quot;font-size: 16px;&quot;&gt;00&lt;/span&gt;" style="rounded=0;whiteSpace=wrap;html=1;fontSize=18;labelBackgroundColor=none;labelBorderColor=none;fillColor=#fff2cc;strokeColor=#000000;fontFamily=JetBrains Mono;" parent="1" vertex="1">
                    <mxGeometry x="360" y="760" width="40" height="40" as="geometry"/>
                </mxCell>
                <mxCell id="1215" value="&lt;span style=&quot;font-size: 16px;&quot;&gt;00&lt;/span&gt;" style="rounded=0;whiteSpace=wrap;html=1;fontSize=18;labelBackgroundColor=none;labelBorderColor=none;fillColor=#fff2cc;strokeColor=#000000;fontFamily=JetBrains Mono;" parent="1" vertex="1">
                    <mxGeometry x="520" y="760" width="40" height="40" as="geometry"/>
                </mxCell>
                <mxCell id="1216" value="&lt;span style=&quot;font-size: 16px;&quot;&gt;00&lt;/span&gt;" style="rounded=0;whiteSpace=wrap;html=1;fontSize=18;labelBackgroundColor=none;labelBorderColor=none;fillColor=#fff2cc;strokeColor=#000000;fontFamily=JetBrains Mono;" parent="1" vertex="1">
                    <mxGeometry x="480" y="760" width="40" height="40" as="geometry"/>
                </mxCell>
                <mxCell id="1217" value="&lt;span style=&quot;font-size: 16px;&quot;&gt;00&lt;/span&gt;" style="rounded=0;whiteSpace=wrap;html=1;fontSize=18;labelBackgroundColor=none;labelBorderColor=none;fillColor=#fff2cc;strokeColor=#000000;fontFamily=JetBrains Mono;" parent="1" vertex="1">
                    <mxGeometry x="440" y="760" width="40" height="40" as="geometry"/>
                </mxCell>
                <mxCell id="1218" value="&lt;span style=&quot;font-size: 16px;&quot;&gt;00&lt;/span&gt;" style="rounded=0;whiteSpace=wrap;html=1;fontSize=18;labelBackgroundColor=none;labelBorderColor=none;fillColor=#fff2cc;strokeColor=#000000;fontFamily=JetBrains Mono;" parent="1" vertex="1">
                    <mxGeometry x="400" y="760" width="40" height="40" as="geometry"/>
                </mxCell>
                <mxCell id="1219" value="&lt;span style=&quot;font-size: 16px;&quot;&gt;00&lt;/span&gt;" style="rounded=0;whiteSpace=wrap;html=1;fontSize=18;labelBackgroundColor=none;labelBorderColor=none;fillColor=#fff2cc;strokeColor=#000000;fontFamily=JetBrains Mono;" parent="1" vertex="1">
                    <mxGeometry x="240" y="720" width="40" height="40" as="geometry"/>
                </mxCell>
                <mxCell id="1220" value="&lt;span style=&quot;font-size: 16px;&quot;&gt;00&lt;/span&gt;" style="rounded=0;whiteSpace=wrap;html=1;fontSize=18;labelBackgroundColor=none;labelBorderColor=none;fillColor=#fff2cc;strokeColor=#000000;fontFamily=JetBrains Mono;" parent="1" vertex="1">
                    <mxGeometry x="280" y="720" width="40" height="40" as="geometry"/>
                </mxCell>
                <mxCell id="1221" value="&lt;span style=&quot;font-size: 16px;&quot;&gt;00&lt;/span&gt;" style="rounded=0;whiteSpace=wrap;html=1;fontSize=18;labelBackgroundColor=none;labelBorderColor=none;fillColor=#fff2cc;strokeColor=#000000;fontFamily=JetBrains Mono;" parent="1" vertex="1">
                    <mxGeometry x="320" y="720" width="40" height="40" as="geometry"/>
                </mxCell>
                <mxCell id="1222" value="&lt;span style=&quot;font-size: 16px;&quot;&gt;00&lt;/span&gt;" style="rounded=0;whiteSpace=wrap;html=1;fontSize=18;labelBackgroundColor=none;labelBorderColor=none;fillColor=#fff2cc;strokeColor=#000000;fontFamily=JetBrains Mono;" parent="1" vertex="1">
                    <mxGeometry x="360" y="720" width="40" height="40" as="geometry"/>
                </mxCell>
                <mxCell id="1223" value="&lt;span style=&quot;font-size: 16px;&quot;&gt;00&lt;/span&gt;" style="rounded=0;whiteSpace=wrap;html=1;fontSize=18;labelBackgroundColor=none;labelBorderColor=none;fillColor=#fff2cc;strokeColor=#000000;fontFamily=JetBrains Mono;" parent="1" vertex="1">
                    <mxGeometry x="520" y="720" width="40" height="40" as="geometry"/>
                </mxCell>
                <mxCell id="1224" value="&lt;span style=&quot;font-size: 16px;&quot;&gt;00&lt;/span&gt;" style="rounded=0;whiteSpace=wrap;html=1;fontSize=18;labelBackgroundColor=none;labelBorderColor=none;fillColor=#fff2cc;strokeColor=#000000;fontFamily=JetBrains Mono;" parent="1" vertex="1">
                    <mxGeometry x="480" y="720" width="40" height="40" as="geometry"/>
                </mxCell>
                <mxCell id="1225" value="&lt;span style=&quot;font-size: 16px;&quot;&gt;00&lt;/span&gt;" style="rounded=0;whiteSpace=wrap;html=1;fontSize=18;labelBackgroundColor=none;labelBorderColor=none;fillColor=#fff2cc;strokeColor=#000000;fontFamily=JetBrains Mono;" parent="1" vertex="1">
                    <mxGeometry x="440" y="720" width="40" height="40" as="geometry"/>
                </mxCell>
                <mxCell id="1226" value="&lt;span style=&quot;font-size: 16px;&quot;&gt;00&lt;/span&gt;" style="rounded=0;whiteSpace=wrap;html=1;fontSize=18;labelBackgroundColor=none;labelBorderColor=none;fillColor=#fff2cc;strokeColor=#000000;fontFamily=JetBrains Mono;" parent="1" vertex="1">
                    <mxGeometry x="400" y="720" width="40" height="40" as="geometry"/>
                </mxCell>
                <mxCell id="1227" value="&lt;span style=&quot;font-size: 16px;&quot;&gt;00&lt;/span&gt;" style="rounded=0;whiteSpace=wrap;html=1;fontSize=18;labelBackgroundColor=none;labelBorderColor=none;fillColor=#fff2cc;strokeColor=#000000;fontFamily=JetBrains Mono;" parent="1" vertex="1">
                    <mxGeometry x="240" y="680" width="40" height="40" as="geometry"/>
                </mxCell>
                <mxCell id="1228" value="&lt;span style=&quot;font-size: 16px;&quot;&gt;00&lt;/span&gt;" style="rounded=0;whiteSpace=wrap;html=1;fontSize=18;labelBackgroundColor=none;labelBorderColor=none;fillColor=#fff2cc;strokeColor=#000000;fontFamily=JetBrains Mono;" parent="1" vertex="1">
                    <mxGeometry x="280" y="680" width="40" height="40" as="geometry"/>
                </mxCell>
                <mxCell id="1229" value="&lt;span style=&quot;font-size: 16px;&quot;&gt;00&lt;/span&gt;" style="rounded=0;whiteSpace=wrap;html=1;fontSize=18;labelBackgroundColor=none;labelBorderColor=none;fillColor=#fff2cc;strokeColor=#000000;fontFamily=JetBrains Mono;" parent="1" vertex="1">
                    <mxGeometry x="320" y="680" width="40" height="40" as="geometry"/>
                </mxCell>
                <mxCell id="1230" value="&lt;span style=&quot;font-size: 16px;&quot;&gt;00&lt;/span&gt;" style="rounded=0;whiteSpace=wrap;html=1;fontSize=18;labelBackgroundColor=none;labelBorderColor=none;fillColor=#fff2cc;strokeColor=#000000;fontFamily=JetBrains Mono;" parent="1" vertex="1">
                    <mxGeometry x="360" y="680" width="40" height="40" as="geometry"/>
                </mxCell>
                <mxCell id="1231" value="&lt;span style=&quot;font-size: 16px;&quot;&gt;00&lt;/span&gt;" style="rounded=0;whiteSpace=wrap;html=1;fontSize=18;labelBackgroundColor=none;labelBorderColor=none;fillColor=#fff2cc;strokeColor=#000000;fontFamily=JetBrains Mono;" parent="1" vertex="1">
                    <mxGeometry x="520" y="680" width="40" height="40" as="geometry"/>
                </mxCell>
                <mxCell id="1232" value="&lt;span style=&quot;font-size: 16px;&quot;&gt;00&lt;/span&gt;" style="rounded=0;whiteSpace=wrap;html=1;fontSize=18;labelBackgroundColor=none;labelBorderColor=none;fillColor=#fff2cc;strokeColor=#000000;fontFamily=JetBrains Mono;" parent="1" vertex="1">
                    <mxGeometry x="480" y="680" width="40" height="40" as="geometry"/>
                </mxCell>
                <mxCell id="1233" value="&lt;span style=&quot;font-size: 16px;&quot;&gt;00&lt;/span&gt;" style="rounded=0;whiteSpace=wrap;html=1;fontSize=18;labelBackgroundColor=none;labelBorderColor=none;fillColor=#fff2cc;strokeColor=#000000;fontFamily=JetBrains Mono;" parent="1" vertex="1">
                    <mxGeometry x="440" y="680" width="40" height="40" as="geometry"/>
                </mxCell>
                <mxCell id="1234" value="&lt;span style=&quot;font-size: 16px;&quot;&gt;00&lt;/span&gt;" style="rounded=0;whiteSpace=wrap;html=1;fontSize=18;labelBackgroundColor=none;labelBorderColor=none;fillColor=#fff2cc;strokeColor=#000000;fontFamily=JetBrains Mono;" parent="1" vertex="1">
                    <mxGeometry x="400" y="680" width="40" height="40" as="geometry"/>
                </mxCell>
                <mxCell id="1237" value="&lt;font&gt;&lt;span style=&quot;font-size: 16px;&quot;&gt;35&lt;/span&gt;&lt;/font&gt;" style="rounded=0;whiteSpace=wrap;html=1;fontSize=18;fillColor=#ffff88;strokeColor=#36393d;labelBackgroundColor=none;labelBorderColor=none;fontFamily=JetBrains Mono;" parent="1" vertex="1">
                    <mxGeometry x="520" y="240" width="40" height="40" as="geometry"/>
                </mxCell>
                <mxCell id="1238" value="&lt;font&gt;&lt;span style=&quot;font-size: 16px;&quot;&gt;39&lt;/span&gt;&lt;/font&gt;" style="rounded=0;whiteSpace=wrap;html=1;fontSize=18;fillColor=#ffff88;strokeColor=#36393d;labelBackgroundColor=none;labelBorderColor=none;fontFamily=JetBrains Mono;" parent="1" vertex="1">
                    <mxGeometry x="480" y="240" width="40" height="40" as="geometry"/>
                </mxCell>
                <mxCell id="1239" value="&lt;font&gt;&lt;span style=&quot;font-size: 16px;&quot;&gt;62&lt;/span&gt;&lt;/font&gt;" style="rounded=0;whiteSpace=wrap;html=1;fontSize=18;fillColor=#ffff88;strokeColor=#36393d;labelBackgroundColor=none;labelBorderColor=none;fontFamily=JetBrains Mono;" parent="1" vertex="1">
                    <mxGeometry x="440" y="240" width="40" height="40" as="geometry"/>
                </mxCell>
                <mxCell id="1240" value="&lt;font&gt;&lt;span style=&quot;font-size: 16px;&quot;&gt;39&lt;/span&gt;&lt;/font&gt;" style="rounded=0;whiteSpace=wrap;html=1;fontSize=18;fillColor=#ffff88;strokeColor=#36393d;labelBackgroundColor=none;labelBorderColor=none;fontFamily=JetBrains Mono;" parent="1" vertex="1">
                    <mxGeometry x="400" y="240" width="40" height="40" as="geometry"/>
                </mxCell>
                <mxCell id="1241" value="&lt;font&gt;&lt;span style=&quot;font-size: 16px;&quot;&gt;39&lt;/span&gt;&lt;/font&gt;" style="rounded=0;whiteSpace=wrap;html=1;fontSize=18;fillColor=#ffff88;strokeColor=#36393d;labelBackgroundColor=none;labelBorderColor=none;fontFamily=JetBrains Mono;" parent="1" vertex="1">
                    <mxGeometry x="360" y="240" width="40" height="40" as="geometry"/>
                </mxCell>
                <mxCell id="1242" value="&lt;font&gt;&lt;span style=&quot;font-size: 16px;&quot;&gt;37&lt;/span&gt;&lt;/font&gt;" style="rounded=0;whiteSpace=wrap;html=1;fontSize=18;fillColor=#ffff88;strokeColor=#36393d;labelBackgroundColor=none;labelBorderColor=none;fontFamily=JetBrains Mono;" parent="1" vertex="1">
                    <mxGeometry x="320" y="240" width="40" height="40" as="geometry"/>
                </mxCell>
                <mxCell id="1243" value="&lt;font&gt;&lt;span style=&quot;font-size: 16px;&quot;&gt;66&lt;/span&gt;&lt;/font&gt;" style="rounded=0;whiteSpace=wrap;html=1;fontSize=18;fillColor=#ffff88;strokeColor=#36393d;labelBackgroundColor=none;labelBorderColor=none;fontFamily=JetBrains Mono;" parent="1" vertex="1">
                    <mxGeometry x="280" y="240" width="40" height="40" as="geometry"/>
                </mxCell>
                <mxCell id="1244" value="&lt;font&gt;&lt;span style=&quot;font-size: 16px;&quot;&gt;61&lt;/span&gt;&lt;/font&gt;" style="rounded=0;whiteSpace=wrap;html=1;fontSize=18;fillColor=#ffff88;strokeColor=#36393d;labelBackgroundColor=none;labelBorderColor=none;fontFamily=JetBrains Mono;" parent="1" vertex="1">
                    <mxGeometry x="240" y="240" width="40" height="40" as="geometry"/>
                </mxCell>
                <mxCell id="1245" value="&lt;font&gt;&lt;span style=&quot;font-size: 16px;&quot;&gt;00&lt;/span&gt;&lt;/font&gt;" style="rounded=0;whiteSpace=wrap;html=1;fontSize=18;fillColor=#ffff88;strokeColor=#36393d;labelBackgroundColor=none;labelBorderColor=none;fontFamily=JetBrains Mono;" parent="1" vertex="1">
                    <mxGeometry x="520" y="200" width="40" height="40" as="geometry"/>
                </mxCell>
                <mxCell id="1246" style="edgeStyle=none;html=1;exitX=0.5;exitY=1;exitDx=0;exitDy=0;fontFamily=JetBrains Mono;entryX=0;entryY=0;entryDx=0;entryDy=0;" parent="1" source="1247" target="1240" edge="1">
                    <mxGeometry relative="1" as="geometry">
                        <mxPoint x="490" y="230" as="targetPoint"/>
                    </mxGeometry>
                </mxCell>
                <mxCell id="1247" value="&lt;font face=&quot;思源黑体&quot;&gt;字符串&lt;/font&gt;(59b997fa\0)" style="text;html=1;strokeColor=none;fillColor=none;align=center;verticalAlign=middle;whiteSpace=wrap;rounded=0;fontSize=18;fontFamily=JetBrains Mono;" parent="1" vertex="1">
                    <mxGeometry x="300" y="160" width="200" height="30" as="geometry"/>
                </mxCell>
                <mxCell id="1248" value="&lt;span style=&quot;font-size: 16px;&quot;&gt;00&lt;/span&gt;" style="rounded=0;whiteSpace=wrap;html=1;fontSize=18;labelBackgroundColor=none;labelBorderColor=none;fillColor=#fff2cc;strokeColor=#000000;fontFamily=JetBrains Mono;" parent="1" vertex="1">
                    <mxGeometry x="240" y="800" width="40" height="40" as="geometry"/>
                </mxCell>
                <mxCell id="1249" value="&lt;span style=&quot;font-size: 16px;&quot;&gt;00&lt;/span&gt;" style="rounded=0;whiteSpace=wrap;html=1;fontSize=18;labelBackgroundColor=none;labelBorderColor=none;fillColor=#fff2cc;strokeColor=#000000;fontFamily=JetBrains Mono;" parent="1" vertex="1">
                    <mxGeometry x="280" y="800" width="40" height="40" as="geometry"/>
                </mxCell>
                <mxCell id="1250" value="&lt;span style=&quot;font-size: 16px;&quot;&gt;00&lt;/span&gt;" style="rounded=0;whiteSpace=wrap;html=1;fontSize=18;labelBackgroundColor=none;labelBorderColor=none;fillColor=#fff2cc;strokeColor=#000000;fontFamily=JetBrains Mono;" parent="1" vertex="1">
                    <mxGeometry x="320" y="800" width="40" height="40" as="geometry"/>
                </mxCell>
                <mxCell id="1251" value="&lt;span style=&quot;font-size: 16px;&quot;&gt;00&lt;/span&gt;" style="rounded=0;whiteSpace=wrap;html=1;fontSize=18;labelBackgroundColor=none;labelBorderColor=none;fillColor=#fff2cc;strokeColor=#000000;fontFamily=JetBrains Mono;" parent="1" vertex="1">
                    <mxGeometry x="360" y="800" width="40" height="40" as="geometry"/>
                </mxCell>
                <mxCell id="1252" value="&lt;span style=&quot;font-size: 16px;&quot;&gt;00&lt;/span&gt;" style="rounded=0;whiteSpace=wrap;html=1;fontSize=18;labelBackgroundColor=none;labelBorderColor=none;fillColor=#fff2cc;strokeColor=#000000;fontFamily=JetBrains Mono;" parent="1" vertex="1">
                    <mxGeometry x="400" y="800" width="40" height="40" as="geometry"/>
                </mxCell>
                <mxCell id="1253" value="&lt;span style=&quot;font-size: 16px;&quot;&gt;00&lt;/span&gt;" style="rounded=0;whiteSpace=wrap;html=1;fontSize=18;labelBackgroundColor=none;labelBorderColor=none;fillColor=#fff2cc;strokeColor=#000000;fontFamily=JetBrains Mono;" parent="1" vertex="1">
                    <mxGeometry x="440" y="800" width="40" height="40" as="geometry"/>
                </mxCell>
                <mxCell id="1254" value="&lt;span style=&quot;font-size: 16px;&quot;&gt;00&lt;/span&gt;" style="rounded=0;whiteSpace=wrap;html=1;fontSize=18;labelBackgroundColor=none;labelBorderColor=none;fillColor=#fff2cc;strokeColor=#000000;fontFamily=JetBrains Mono;" parent="1" vertex="1">
                    <mxGeometry x="480" y="800" width="40" height="40" as="geometry"/>
                </mxCell>
                <mxCell id="1255" value="&lt;span style=&quot;font-size: 16px;&quot;&gt;00&lt;/span&gt;" style="rounded=0;whiteSpace=wrap;html=1;fontSize=18;labelBackgroundColor=none;labelBorderColor=none;fillColor=#fff2cc;strokeColor=#000000;fontFamily=JetBrains Mono;" parent="1" vertex="1">
                    <mxGeometry x="520" y="800" width="40" height="40" as="geometry"/>
                </mxCell>
                <mxCell id="1256" value="&lt;span style=&quot;font-size: 16px;&quot;&gt;00&lt;/span&gt;" style="rounded=0;whiteSpace=wrap;html=1;fontSize=18;labelBackgroundColor=none;labelBorderColor=none;fillColor=#fff2cc;strokeColor=#000000;fontFamily=JetBrains Mono;" parent="1" vertex="1">
                    <mxGeometry x="240" y="840" width="40" height="40" as="geometry"/>
                </mxCell>
                <mxCell id="1257" value="&lt;span style=&quot;font-size: 16px;&quot;&gt;00&lt;/span&gt;" style="rounded=0;whiteSpace=wrap;html=1;fontSize=18;labelBackgroundColor=none;labelBorderColor=none;fillColor=#fff2cc;strokeColor=#000000;fontFamily=JetBrains Mono;" parent="1" vertex="1">
                    <mxGeometry x="280" y="840" width="40" height="40" as="geometry"/>
                </mxCell>
                <mxCell id="1258" value="&lt;span style=&quot;font-size: 16px;&quot;&gt;00&lt;/span&gt;" style="rounded=0;whiteSpace=wrap;html=1;fontSize=18;labelBackgroundColor=none;labelBorderColor=none;fillColor=#fff2cc;strokeColor=#000000;fontFamily=JetBrains Mono;" parent="1" vertex="1">
                    <mxGeometry x="320" y="840" width="40" height="40" as="geometry"/>
                </mxCell>
                <mxCell id="1259" value="&lt;span style=&quot;font-size: 16px;&quot;&gt;00&lt;/span&gt;" style="rounded=0;whiteSpace=wrap;html=1;fontSize=18;labelBackgroundColor=none;labelBorderColor=none;fillColor=#fff2cc;strokeColor=#000000;fontFamily=JetBrains Mono;" parent="1" vertex="1">
                    <mxGeometry x="360" y="840" width="40" height="40" as="geometry"/>
                </mxCell>
                <mxCell id="1260" value="&lt;span style=&quot;font-size: 16px;&quot;&gt;00&lt;/span&gt;" style="rounded=0;whiteSpace=wrap;html=1;fontSize=18;labelBackgroundColor=none;labelBorderColor=none;fillColor=#fff2cc;strokeColor=#000000;fontFamily=JetBrains Mono;" parent="1" vertex="1">
                    <mxGeometry x="400" y="840" width="40" height="40" as="geometry"/>
                </mxCell>
                <mxCell id="1261" value="&lt;span style=&quot;font-size: 16px;&quot;&gt;00&lt;/span&gt;" style="rounded=0;whiteSpace=wrap;html=1;fontSize=18;labelBackgroundColor=none;labelBorderColor=none;fillColor=#fff2cc;strokeColor=#000000;fontFamily=JetBrains Mono;" parent="1" vertex="1">
                    <mxGeometry x="440" y="840" width="40" height="40" as="geometry"/>
                </mxCell>
                <mxCell id="1262" value="&lt;span style=&quot;font-size: 16px;&quot;&gt;00&lt;/span&gt;" style="rounded=0;whiteSpace=wrap;html=1;fontSize=18;labelBackgroundColor=none;labelBorderColor=none;fillColor=#fff2cc;strokeColor=#000000;fontFamily=JetBrains Mono;" parent="1" vertex="1">
                    <mxGeometry x="480" y="840" width="40" height="40" as="geometry"/>
                </mxCell>
                <mxCell id="1263" value="&lt;span style=&quot;font-size: 16px;&quot;&gt;00&lt;/span&gt;" style="rounded=0;whiteSpace=wrap;html=1;fontSize=18;labelBackgroundColor=none;labelBorderColor=none;fillColor=#fff2cc;strokeColor=#000000;fontFamily=JetBrains Mono;" parent="1" vertex="1">
                    <mxGeometry x="520" y="840" width="40" height="40" as="geometry"/>
                </mxCell>
                <mxCell id="1265" value="&lt;span style=&quot;font-size: 16px;&quot;&gt;00&lt;/span&gt;" style="rounded=0;whiteSpace=wrap;html=1;fontSize=18;fillColor=#d5e8d4;strokeColor=#000000;fontColor=default;labelBackgroundColor=none;labelBorderColor=none;fontFamily=JetBrains Mono;" parent="1" vertex="1">
                    <mxGeometry x="240" y="600" width="40" height="40" as="geometry"/>
                </mxCell>
                <mxCell id="1266" value="&lt;span style=&quot;font-size: 16px;&quot;&gt;00&lt;/span&gt;" style="rounded=0;whiteSpace=wrap;html=1;fontSize=18;fillColor=#d5e8d4;strokeColor=#000000;fontColor=default;labelBackgroundColor=none;labelBorderColor=none;fontFamily=JetBrains Mono;" parent="1" vertex="1">
                    <mxGeometry x="280" y="600" width="40" height="40" as="geometry"/>
                </mxCell>
                <mxCell id="1267" value="&lt;span style=&quot;font-size: 16px;&quot;&gt;00&lt;/span&gt;" style="rounded=0;whiteSpace=wrap;html=1;fontSize=18;fillColor=#d5e8d4;strokeColor=#000000;fontColor=default;labelBackgroundColor=none;labelBorderColor=none;fontFamily=JetBrains Mono;" parent="1" vertex="1">
                    <mxGeometry x="320" y="600" width="40" height="40" as="geometry"/>
                </mxCell>
                <mxCell id="1268" value="&lt;span style=&quot;font-size: 16px;&quot;&gt;00&lt;/span&gt;" style="rounded=0;whiteSpace=wrap;html=1;fontSize=18;fillColor=#d5e8d4;strokeColor=#000000;fontColor=default;labelBackgroundColor=none;labelBorderColor=none;fontFamily=JetBrains Mono;" parent="1" vertex="1">
                    <mxGeometry x="360" y="600" width="40" height="40" as="geometry"/>
                </mxCell>
                <mxCell id="1269" value="&lt;font&gt;&lt;span style=&quot;font-size: 16px;&quot;&gt;00&lt;/span&gt;&lt;/font&gt;" style="rounded=0;whiteSpace=wrap;html=1;fontSize=18;fillColor=#d5e8d4;strokeColor=#000000;labelBackgroundColor=none;labelBorderColor=none;fontFamily=JetBrains Mono;" parent="1" vertex="1">
                    <mxGeometry x="400" y="600" width="40" height="40" as="geometry"/>
                </mxCell>
                <mxCell id="1270" value="&lt;font&gt;&lt;span style=&quot;font-size: 16px;&quot;&gt;40&lt;/span&gt;&lt;/font&gt;" style="rounded=0;whiteSpace=wrap;html=1;fontSize=18;fillColor=#d5e8d4;strokeColor=#000000;labelBackgroundColor=none;labelBorderColor=none;fontFamily=JetBrains Mono;" parent="1" vertex="1">
                    <mxGeometry x="440" y="600" width="40" height="40" as="geometry"/>
                </mxCell>
                <mxCell id="1271" value="&lt;font&gt;&lt;span style=&quot;font-size: 16px;&quot;&gt;19&lt;/span&gt;&lt;/font&gt;" style="rounded=0;whiteSpace=wrap;html=1;fontSize=18;fillColor=#d5e8d4;strokeColor=#000000;labelBackgroundColor=none;labelBorderColor=none;fontFamily=JetBrains Mono;" parent="1" vertex="1">
                    <mxGeometry x="480" y="600" width="40" height="40" as="geometry"/>
                </mxCell>
                <mxCell id="1272" value="&lt;span style=&quot;font-size: 16px;&quot;&gt;C5&lt;/span&gt;" style="rounded=0;whiteSpace=wrap;html=1;fontSize=18;fillColor=#d5e8d4;strokeColor=#000000;labelBackgroundColor=none;labelBorderColor=none;fontFamily=JetBrains Mono;" parent="1" vertex="1">
                    <mxGeometry x="520" y="600" width="40" height="40" as="geometry"/>
                </mxCell>
                <mxCell id="1273" value="&lt;span style=&quot;font-size: 16px;&quot;&gt;00&lt;/span&gt;" style="rounded=0;whiteSpace=wrap;html=1;fontSize=18;fillColor=#d5e8d4;strokeColor=#000000;fontColor=default;labelBackgroundColor=none;labelBorderColor=none;fontFamily=JetBrains Mono;" parent="1" vertex="1">
                    <mxGeometry x="240" y="560" width="40" height="40" as="geometry"/>
                </mxCell>
                <mxCell id="1274" value="&lt;span style=&quot;font-size: 16px;&quot;&gt;00&lt;/span&gt;" style="rounded=0;whiteSpace=wrap;html=1;fontSize=18;fillColor=#d5e8d4;strokeColor=#000000;fontColor=default;labelBackgroundColor=none;labelBorderColor=none;fontFamily=JetBrains Mono;" parent="1" vertex="1">
                    <mxGeometry x="280" y="560" width="40" height="40" as="geometry"/>
                </mxCell>
                <mxCell id="1275" value="&lt;span style=&quot;font-size: 16px;&quot;&gt;00&lt;/span&gt;" style="rounded=0;whiteSpace=wrap;html=1;fontSize=18;fillColor=#d5e8d4;strokeColor=#000000;fontColor=default;labelBackgroundColor=none;labelBorderColor=none;fontFamily=JetBrains Mono;" parent="1" vertex="1">
                    <mxGeometry x="320" y="560" width="40" height="40" as="geometry"/>
                </mxCell>
                <mxCell id="1276" value="&lt;span style=&quot;font-size: 16px;&quot;&gt;00&lt;/span&gt;" style="rounded=0;whiteSpace=wrap;html=1;fontSize=18;fillColor=#d5e8d4;strokeColor=#000000;fontColor=default;labelBackgroundColor=none;labelBorderColor=none;fontFamily=JetBrains Mono;" parent="1" vertex="1">
                    <mxGeometry x="360" y="560" width="40" height="40" as="geometry"/>
                </mxCell>
                <mxCell id="1277" value="&lt;font&gt;&lt;span style=&quot;font-size: 16px;&quot;&gt;00&lt;/span&gt;&lt;/font&gt;" style="rounded=0;whiteSpace=wrap;html=1;fontSize=18;fillColor=#d5e8d4;strokeColor=#000000;labelBackgroundColor=none;labelBorderColor=none;fontFamily=JetBrains Mono;" parent="1" vertex="1">
                    <mxGeometry x="400" y="560" width="40" height="40" as="geometry"/>
                </mxCell>
                <mxCell id="1278" value="&lt;font&gt;&lt;span style=&quot;font-size: 16px;&quot;&gt;40&lt;/span&gt;&lt;/font&gt;" style="rounded=0;whiteSpace=wrap;html=1;fontSize=18;fillColor=#d5e8d4;strokeColor=#000000;labelBackgroundColor=none;labelBorderColor=none;fontFamily=JetBrains Mono;" parent="1" vertex="1">
                    <mxGeometry x="440" y="560" width="40" height="40" as="geometry"/>
                </mxCell>
                <mxCell id="1279" value="&lt;font&gt;&lt;span style=&quot;font-size: 16px;&quot;&gt;19&lt;/span&gt;&lt;/font&gt;" style="rounded=0;whiteSpace=wrap;html=1;fontSize=18;fillColor=#d5e8d4;strokeColor=#000000;labelBackgroundColor=none;labelBorderColor=none;fontFamily=JetBrains Mono;" parent="1" vertex="1">
                    <mxGeometry x="480" y="560" width="40" height="40" as="geometry"/>
                </mxCell>
                <mxCell id="1280" value="&lt;span style=&quot;font-size: 16px;&quot;&gt;AB&lt;/span&gt;" style="rounded=0;whiteSpace=wrap;html=1;fontSize=18;fillColor=#d5e8d4;strokeColor=#000000;labelBackgroundColor=none;labelBorderColor=none;fontFamily=JetBrains Mono;" parent="1" vertex="1">
                    <mxGeometry x="520" y="560" width="40" height="40" as="geometry"/>
                </mxCell>
                <mxCell id="1281" value="&lt;font&gt;&lt;span style=&quot;font-size: 16px;&quot;&gt;00&lt;/span&gt;&lt;/font&gt;" style="rounded=0;whiteSpace=wrap;html=1;fontSize=18;fillColor=#ffff88;strokeColor=#36393d;labelBackgroundColor=none;labelBorderColor=none;fontFamily=JetBrains Mono;" parent="1" vertex="1">
                    <mxGeometry x="240" y="520" width="40" height="40" as="geometry"/>
                </mxCell>
                <mxCell id="1282" value="&lt;font&gt;&lt;span style=&quot;font-size: 16px;&quot;&gt;00&lt;/span&gt;&lt;/font&gt;" style="rounded=0;whiteSpace=wrap;html=1;fontSize=18;fillColor=#ffff88;strokeColor=#36393d;labelBackgroundColor=none;labelBorderColor=none;fontFamily=JetBrains Mono;" parent="1" vertex="1">
                    <mxGeometry x="280" y="520" width="40" height="40" as="geometry"/>
                </mxCell>
                <mxCell id="1283" value="&lt;font&gt;&lt;span style=&quot;font-size: 16px;&quot;&gt;00&lt;/span&gt;&lt;/font&gt;" style="rounded=0;whiteSpace=wrap;html=1;fontSize=18;fillColor=#ffff88;strokeColor=#36393d;labelBackgroundColor=none;labelBorderColor=none;fontFamily=JetBrains Mono;" parent="1" vertex="1">
                    <mxGeometry x="320" y="520" width="40" height="40" as="geometry"/>
                </mxCell>
                <mxCell id="1284" value="&lt;font&gt;&lt;span style=&quot;font-size: 16px;&quot;&gt;00&lt;/span&gt;&lt;/font&gt;" style="rounded=0;whiteSpace=wrap;html=1;fontSize=18;fillColor=#ffff88;strokeColor=#36393d;labelBackgroundColor=none;labelBorderColor=none;fontFamily=JetBrains Mono;" parent="1" vertex="1">
                    <mxGeometry x="360" y="520" width="40" height="40" as="geometry"/>
                </mxCell>
                <mxCell id="1285" value="&lt;font&gt;&lt;span style=&quot;font-size: 16px;&quot;&gt;00&lt;/span&gt;&lt;/font&gt;" style="rounded=0;whiteSpace=wrap;html=1;fontSize=18;fillColor=#ffff88;strokeColor=#36393d;labelBackgroundColor=none;labelBorderColor=none;fontFamily=JetBrains Mono;" parent="1" vertex="1">
                    <mxGeometry x="400" y="520" width="40" height="40" as="geometry"/>
                </mxCell>
                <mxCell id="1286" value="&lt;font&gt;&lt;span style=&quot;font-size: 16px;&quot;&gt;00&lt;/span&gt;&lt;/font&gt;" style="rounded=0;whiteSpace=wrap;html=1;fontSize=18;fillColor=#ffff88;strokeColor=#36393d;labelBackgroundColor=none;labelBorderColor=none;fontFamily=JetBrains Mono;" parent="1" vertex="1">
                    <mxGeometry x="440" y="520" width="40" height="40" as="geometry"/>
                </mxCell>
                <mxCell id="1287" value="&lt;font&gt;&lt;span style=&quot;font-size: 16px;&quot;&gt;00&lt;/span&gt;&lt;/font&gt;" style="rounded=0;whiteSpace=wrap;html=1;fontSize=18;fillColor=#ffff88;strokeColor=#36393d;labelBackgroundColor=none;labelBorderColor=none;fontFamily=JetBrains Mono;" parent="1" vertex="1">
                    <mxGeometry x="480" y="520" width="40" height="40" as="geometry"/>
                </mxCell>
                <mxCell id="1288" value="&lt;font&gt;&lt;span style=&quot;font-size: 16px;&quot;&gt;48&lt;/span&gt;&lt;/font&gt;" style="rounded=0;whiteSpace=wrap;html=1;fontSize=18;fillColor=#ffff88;strokeColor=#36393d;labelBackgroundColor=none;labelBorderColor=none;fontFamily=JetBrains Mono;" parent="1" vertex="1">
                    <mxGeometry x="520" y="520" width="40" height="40" as="geometry"/>
                </mxCell>
                <mxCell id="1289" value="&lt;span style=&quot;font-size: 16px;&quot;&gt;00&lt;/span&gt;" style="rounded=0;whiteSpace=wrap;html=1;fontSize=18;fillColor=#d5e8d4;strokeColor=#000000;fontColor=default;labelBackgroundColor=none;labelBorderColor=none;fontFamily=JetBrains Mono;" parent="1" vertex="1">
                    <mxGeometry x="240" y="480" width="40" height="40" as="geometry"/>
                </mxCell>
                <mxCell id="1290" value="&lt;span style=&quot;font-size: 16px;&quot;&gt;00&lt;/span&gt;" style="rounded=0;whiteSpace=wrap;html=1;fontSize=18;fillColor=#d5e8d4;strokeColor=#000000;fontColor=default;labelBackgroundColor=none;labelBorderColor=none;fontFamily=JetBrains Mono;" parent="1" vertex="1">
                    <mxGeometry x="280" y="480" width="40" height="40" as="geometry"/>
                </mxCell>
                <mxCell id="1291" value="&lt;span style=&quot;font-size: 16px;&quot;&gt;00&lt;/span&gt;" style="rounded=0;whiteSpace=wrap;html=1;fontSize=18;fillColor=#d5e8d4;strokeColor=#000000;fontColor=default;labelBackgroundColor=none;labelBorderColor=none;fontFamily=JetBrains Mono;" parent="1" vertex="1">
                    <mxGeometry x="320" y="480" width="40" height="40" as="geometry"/>
                </mxCell>
                <mxCell id="1292" value="&lt;span style=&quot;font-size: 16px;&quot;&gt;00&lt;/span&gt;" style="rounded=0;whiteSpace=wrap;html=1;fontSize=18;fillColor=#d5e8d4;strokeColor=#000000;fontColor=default;labelBackgroundColor=none;labelBorderColor=none;fontFamily=JetBrains Mono;" parent="1" vertex="1">
                    <mxGeometry x="360" y="480" width="40" height="40" as="geometry"/>
                </mxCell>
                <mxCell id="1293" value="&lt;font&gt;&lt;span style=&quot;font-size: 16px;&quot;&gt;00&lt;/span&gt;&lt;/font&gt;" style="rounded=0;whiteSpace=wrap;html=1;fontSize=18;fillColor=#d5e8d4;strokeColor=#000000;labelBackgroundColor=none;labelBorderColor=none;fontFamily=JetBrains Mono;" parent="1" vertex="1">
                    <mxGeometry x="400" y="480" width="40" height="40" as="geometry"/>
                </mxCell>
                <mxCell id="1294" value="&lt;font&gt;&lt;span style=&quot;font-size: 16px;&quot;&gt;40&lt;/span&gt;&lt;/font&gt;" style="rounded=0;whiteSpace=wrap;html=1;fontSize=18;fillColor=#d5e8d4;strokeColor=#000000;labelBackgroundColor=none;labelBorderColor=none;fontFamily=JetBrains Mono;" parent="1" vertex="1">
                    <mxGeometry x="440" y="480" width="40" height="40" as="geometry"/>
                </mxCell>
                <mxCell id="1295" value="&lt;font&gt;&lt;span style=&quot;font-size: 16px;&quot;&gt;19&lt;/span&gt;&lt;/font&gt;" style="rounded=0;whiteSpace=wrap;html=1;fontSize=18;fillColor=#d5e8d4;strokeColor=#000000;labelBackgroundColor=none;labelBorderColor=none;fontFamily=JetBrains Mono;" parent="1" vertex="1">
                    <mxGeometry x="480" y="480" width="40" height="40" as="geometry"/>
                </mxCell>
                <mxCell id="1296" value="&lt;span style=&quot;font-size: 16px;&quot;&gt;DD&lt;/span&gt;" style="rounded=0;whiteSpace=wrap;html=1;fontSize=18;fillColor=#d5e8d4;strokeColor=#000000;labelBackgroundColor=none;labelBorderColor=none;fontFamily=JetBrains Mono;" parent="1" vertex="1">
                    <mxGeometry x="520" y="480" width="40" height="40" as="geometry"/>
                </mxCell>
                <mxCell id="1371" value="&lt;span style=&quot;font-size: 16px;&quot;&gt;00&lt;/span&gt;" style="rounded=0;whiteSpace=wrap;html=1;fontSize=18;fillColor=#d5e8d4;strokeColor=#000000;fontColor=default;labelBackgroundColor=none;labelBorderColor=none;fontFamily=JetBrains Mono;" parent="1" vertex="1">
                    <mxGeometry x="240" y="440" width="40" height="40" as="geometry"/>
                </mxCell>
                <mxCell id="1372" value="&lt;span style=&quot;font-size: 16px;&quot;&gt;00&lt;/span&gt;" style="rounded=0;whiteSpace=wrap;html=1;fontSize=18;fillColor=#d5e8d4;strokeColor=#000000;fontColor=default;labelBackgroundColor=none;labelBorderColor=none;fontFamily=JetBrains Mono;" parent="1" vertex="1">
                    <mxGeometry x="280" y="440" width="40" height="40" as="geometry"/>
                </mxCell>
                <mxCell id="1373" value="&lt;span style=&quot;font-size: 16px;&quot;&gt;00&lt;/span&gt;" style="rounded=0;whiteSpace=wrap;html=1;fontSize=18;fillColor=#d5e8d4;strokeColor=#000000;fontColor=default;labelBackgroundColor=none;labelBorderColor=none;fontFamily=JetBrains Mono;" parent="1" vertex="1">
                    <mxGeometry x="320" y="440" width="40" height="40" as="geometry"/>
                </mxCell>
                <mxCell id="1374" value="&lt;span style=&quot;font-size: 16px;&quot;&gt;00&lt;/span&gt;" style="rounded=0;whiteSpace=wrap;html=1;fontSize=18;fillColor=#d5e8d4;strokeColor=#000000;fontColor=default;labelBackgroundColor=none;labelBorderColor=none;fontFamily=JetBrains Mono;" parent="1" vertex="1">
                    <mxGeometry x="360" y="440" width="40" height="40" as="geometry"/>
                </mxCell>
                <mxCell id="1375" value="&lt;font&gt;&lt;span style=&quot;font-size: 16px;&quot;&gt;00&lt;/span&gt;&lt;/font&gt;" style="rounded=0;whiteSpace=wrap;html=1;fontSize=18;fillColor=#d5e8d4;strokeColor=#000000;labelBackgroundColor=none;labelBorderColor=none;fontFamily=JetBrains Mono;" parent="1" vertex="1">
                    <mxGeometry x="400" y="440" width="40" height="40" as="geometry"/>
                </mxCell>
                <mxCell id="1376" value="&lt;font&gt;&lt;span style=&quot;font-size: 16px;&quot;&gt;40&lt;/span&gt;&lt;/font&gt;" style="rounded=0;whiteSpace=wrap;html=1;fontSize=18;fillColor=#d5e8d4;strokeColor=#000000;labelBackgroundColor=none;labelBorderColor=none;fontFamily=JetBrains Mono;" parent="1" vertex="1">
                    <mxGeometry x="440" y="440" width="40" height="40" as="geometry"/>
                </mxCell>
                <mxCell id="1377" value="&lt;font&gt;&lt;span style=&quot;font-size: 16px;&quot;&gt;1A&lt;/span&gt;&lt;/font&gt;" style="rounded=0;whiteSpace=wrap;html=1;fontSize=18;fillColor=#d5e8d4;strokeColor=#000000;labelBackgroundColor=none;labelBorderColor=none;fontFamily=JetBrains Mono;" parent="1" vertex="1">
                    <mxGeometry x="480" y="440" width="40" height="40" as="geometry"/>
                </mxCell>
                <mxCell id="1378" value="&lt;span style=&quot;font-size: 16px;&quot;&gt;34&lt;/span&gt;" style="rounded=0;whiteSpace=wrap;html=1;fontSize=18;fillColor=#d5e8d4;strokeColor=#000000;labelBackgroundColor=none;labelBorderColor=none;fontFamily=JetBrains Mono;" parent="1" vertex="1">
                    <mxGeometry x="520" y="440" width="40" height="40" as="geometry"/>
                </mxCell>
                <mxCell id="1379" value="&lt;span style=&quot;font-size: 16px;&quot;&gt;00&lt;/span&gt;" style="rounded=0;whiteSpace=wrap;html=1;fontSize=18;fillColor=#d5e8d4;strokeColor=#000000;fontColor=default;labelBackgroundColor=none;labelBorderColor=none;fontFamily=JetBrains Mono;" parent="1" vertex="1">
                    <mxGeometry x="240" y="400" width="40" height="40" as="geometry"/>
                </mxCell>
                <mxCell id="1380" value="&lt;span style=&quot;font-size: 16px;&quot;&gt;00&lt;/span&gt;" style="rounded=0;whiteSpace=wrap;html=1;fontSize=18;fillColor=#d5e8d4;strokeColor=#000000;fontColor=default;labelBackgroundColor=none;labelBorderColor=none;fontFamily=JetBrains Mono;" parent="1" vertex="1">
                    <mxGeometry x="280" y="400" width="40" height="40" as="geometry"/>
                </mxCell>
                <mxCell id="1381" value="&lt;span style=&quot;font-size: 16px;&quot;&gt;00&lt;/span&gt;" style="rounded=0;whiteSpace=wrap;html=1;fontSize=18;fillColor=#d5e8d4;strokeColor=#000000;fontColor=default;labelBackgroundColor=none;labelBorderColor=none;fontFamily=JetBrains Mono;" parent="1" vertex="1">
                    <mxGeometry x="320" y="400" width="40" height="40" as="geometry"/>
                </mxCell>
                <mxCell id="1382" value="&lt;span style=&quot;font-size: 16px;&quot;&gt;00&lt;/span&gt;" style="rounded=0;whiteSpace=wrap;html=1;fontSize=18;fillColor=#d5e8d4;strokeColor=#000000;fontColor=default;labelBackgroundColor=none;labelBorderColor=none;fontFamily=JetBrains Mono;" parent="1" vertex="1">
                    <mxGeometry x="360" y="400" width="40" height="40" as="geometry"/>
                </mxCell>
                <mxCell id="1383" value="&lt;font&gt;&lt;span style=&quot;font-size: 16px;&quot;&gt;00&lt;/span&gt;&lt;/font&gt;" style="rounded=0;whiteSpace=wrap;html=1;fontSize=18;fillColor=#d5e8d4;strokeColor=#000000;labelBackgroundColor=none;labelBorderColor=none;fontFamily=JetBrains Mono;" parent="1" vertex="1">
                    <mxGeometry x="400" y="400" width="40" height="40" as="geometry"/>
                </mxCell>
                <mxCell id="1384" value="&lt;font&gt;&lt;span style=&quot;font-size: 16px;&quot;&gt;40&lt;/span&gt;&lt;/font&gt;" style="rounded=0;whiteSpace=wrap;html=1;fontSize=18;fillColor=#d5e8d4;strokeColor=#000000;labelBackgroundColor=none;labelBorderColor=none;fontFamily=JetBrains Mono;" parent="1" vertex="1">
                    <mxGeometry x="440" y="400" width="40" height="40" as="geometry"/>
                </mxCell>
                <mxCell id="1385" value="&lt;font&gt;&lt;span style=&quot;font-size: 16px;&quot;&gt;19&lt;/span&gt;&lt;/font&gt;" style="rounded=0;whiteSpace=wrap;html=1;fontSize=18;fillColor=#d5e8d4;strokeColor=#000000;labelBackgroundColor=none;labelBorderColor=none;fontFamily=JetBrains Mono;" parent="1" vertex="1">
                    <mxGeometry x="480" y="400" width="40" height="40" as="geometry"/>
                </mxCell>
                <mxCell id="1386" value="&lt;span style=&quot;font-size: 16px;&quot;&gt;13&lt;/span&gt;" style="rounded=0;whiteSpace=wrap;html=1;fontSize=18;fillColor=#d5e8d4;strokeColor=#000000;labelBackgroundColor=none;labelBorderColor=none;fontFamily=JetBrains Mono;" parent="1" vertex="1">
                    <mxGeometry x="520" y="400" width="40" height="40" as="geometry"/>
                </mxCell>
                <mxCell id="1395" value="&lt;span style=&quot;font-size: 16px;&quot;&gt;00&lt;/span&gt;" style="rounded=0;whiteSpace=wrap;html=1;fontSize=18;fillColor=#d5e8d4;strokeColor=#000000;fontColor=default;labelBackgroundColor=none;labelBorderColor=none;fontFamily=JetBrains Mono;" parent="1" vertex="1">
                    <mxGeometry x="240" y="400" width="40" height="40" as="geometry"/>
                </mxCell>
                <mxCell id="1396" value="&lt;span style=&quot;font-size: 16px;&quot;&gt;00&lt;/span&gt;" style="rounded=0;whiteSpace=wrap;html=1;fontSize=18;fillColor=#d5e8d4;strokeColor=#000000;fontColor=default;labelBackgroundColor=none;labelBorderColor=none;fontFamily=JetBrains Mono;" parent="1" vertex="1">
                    <mxGeometry x="280" y="400" width="40" height="40" as="geometry"/>
                </mxCell>
                <mxCell id="1397" value="&lt;span style=&quot;font-size: 16px;&quot;&gt;00&lt;/span&gt;" style="rounded=0;whiteSpace=wrap;html=1;fontSize=18;fillColor=#d5e8d4;strokeColor=#000000;fontColor=default;labelBackgroundColor=none;labelBorderColor=none;fontFamily=JetBrains Mono;" parent="1" vertex="1">
                    <mxGeometry x="320" y="400" width="40" height="40" as="geometry"/>
                </mxCell>
                <mxCell id="1398" value="&lt;span style=&quot;font-size: 16px;&quot;&gt;00&lt;/span&gt;" style="rounded=0;whiteSpace=wrap;html=1;fontSize=18;fillColor=#d5e8d4;strokeColor=#000000;fontColor=default;labelBackgroundColor=none;labelBorderColor=none;fontFamily=JetBrains Mono;" parent="1" vertex="1">
                    <mxGeometry x="360" y="400" width="40" height="40" as="geometry"/>
                </mxCell>
                <mxCell id="1399" value="&lt;font&gt;&lt;span style=&quot;font-size: 16px;&quot;&gt;00&lt;/span&gt;&lt;/font&gt;" style="rounded=0;whiteSpace=wrap;html=1;fontSize=18;fillColor=#d5e8d4;strokeColor=#000000;labelBackgroundColor=none;labelBorderColor=none;fontFamily=JetBrains Mono;" parent="1" vertex="1">
                    <mxGeometry x="400" y="400" width="40" height="40" as="geometry"/>
                </mxCell>
                <mxCell id="1400" value="&lt;font&gt;&lt;span style=&quot;font-size: 16px;&quot;&gt;40&lt;/span&gt;&lt;/font&gt;" style="rounded=0;whiteSpace=wrap;html=1;fontSize=18;fillColor=#d5e8d4;strokeColor=#000000;labelBackgroundColor=none;labelBorderColor=none;fontFamily=JetBrains Mono;" parent="1" vertex="1">
                    <mxGeometry x="440" y="400" width="40" height="40" as="geometry"/>
                </mxCell>
                <mxCell id="1401" value="&lt;font&gt;&lt;span style=&quot;font-size: 16px;&quot;&gt;1A&lt;/span&gt;&lt;/font&gt;" style="rounded=0;whiteSpace=wrap;html=1;fontSize=18;fillColor=#d5e8d4;strokeColor=#000000;labelBackgroundColor=none;labelBorderColor=none;fontFamily=JetBrains Mono;" parent="1" vertex="1">
                    <mxGeometry x="480" y="400" width="40" height="40" as="geometry"/>
                </mxCell>
                <mxCell id="1402" value="&lt;span style=&quot;font-size: 16px;&quot;&gt;00&lt;/span&gt;" style="rounded=0;whiteSpace=wrap;html=1;fontSize=18;fillColor=#d5e8d4;strokeColor=#000000;fontColor=default;labelBackgroundColor=none;labelBorderColor=none;fontFamily=JetBrains Mono;" parent="1" vertex="1">
                    <mxGeometry x="240" y="360" width="40" height="40" as="geometry"/>
                </mxCell>
                <mxCell id="1403" value="&lt;span style=&quot;font-size: 16px;&quot;&gt;00&lt;/span&gt;" style="rounded=0;whiteSpace=wrap;html=1;fontSize=18;fillColor=#d5e8d4;strokeColor=#000000;fontColor=default;labelBackgroundColor=none;labelBorderColor=none;fontFamily=JetBrains Mono;" parent="1" vertex="1">
                    <mxGeometry x="280" y="360" width="40" height="40" as="geometry"/>
                </mxCell>
                <mxCell id="1404" value="&lt;span style=&quot;font-size: 16px;&quot;&gt;00&lt;/span&gt;" style="rounded=0;whiteSpace=wrap;html=1;fontSize=18;fillColor=#d5e8d4;strokeColor=#000000;fontColor=default;labelBackgroundColor=none;labelBorderColor=none;fontFamily=JetBrains Mono;" parent="1" vertex="1">
                    <mxGeometry x="320" y="360" width="40" height="40" as="geometry"/>
                </mxCell>
                <mxCell id="1405" value="&lt;span style=&quot;font-size: 16px;&quot;&gt;00&lt;/span&gt;" style="rounded=0;whiteSpace=wrap;html=1;fontSize=18;fillColor=#d5e8d4;strokeColor=#000000;fontColor=default;labelBackgroundColor=none;labelBorderColor=none;fontFamily=JetBrains Mono;" parent="1" vertex="1">
                    <mxGeometry x="360" y="360" width="40" height="40" as="geometry"/>
                </mxCell>
                <mxCell id="1406" value="&lt;font&gt;&lt;span style=&quot;font-size: 16px;&quot;&gt;00&lt;/span&gt;&lt;/font&gt;" style="rounded=0;whiteSpace=wrap;html=1;fontSize=18;fillColor=#d5e8d4;strokeColor=#000000;labelBackgroundColor=none;labelBorderColor=none;fontFamily=JetBrains Mono;" parent="1" vertex="1">
                    <mxGeometry x="400" y="360" width="40" height="40" as="geometry"/>
                </mxCell>
                <mxCell id="1407" value="&lt;font&gt;&lt;span style=&quot;font-size: 16px;&quot;&gt;40&lt;/span&gt;&lt;/font&gt;" style="rounded=0;whiteSpace=wrap;html=1;fontSize=18;fillColor=#d5e8d4;strokeColor=#000000;labelBackgroundColor=none;labelBorderColor=none;fontFamily=JetBrains Mono;" parent="1" vertex="1">
                    <mxGeometry x="440" y="360" width="40" height="40" as="geometry"/>
                </mxCell>
                <mxCell id="1408" value="&lt;font&gt;&lt;span style=&quot;font-size: 16px;&quot;&gt;19&lt;/span&gt;&lt;/font&gt;" style="rounded=0;whiteSpace=wrap;html=1;fontSize=18;fillColor=#d5e8d4;strokeColor=#000000;labelBackgroundColor=none;labelBorderColor=none;fontFamily=JetBrains Mono;" parent="1" vertex="1">
                    <mxGeometry x="480" y="360" width="40" height="40" as="geometry"/>
                </mxCell>
                <mxCell id="1409" value="&lt;span style=&quot;font-size: 16px;&quot;&gt;D6&lt;/span&gt;" style="rounded=0;whiteSpace=wrap;html=1;fontSize=18;fillColor=#d5e8d4;strokeColor=#000000;labelBackgroundColor=none;labelBorderColor=none;fontFamily=JetBrains Mono;" parent="1" vertex="1">
                    <mxGeometry x="520" y="360" width="40" height="40" as="geometry"/>
                </mxCell>
                <mxCell id="1410" value="&lt;span style=&quot;font-size: 16px;&quot;&gt;00&lt;/span&gt;" style="rounded=0;whiteSpace=wrap;html=1;fontSize=18;fillColor=#d5e8d4;strokeColor=#000000;fontColor=default;labelBackgroundColor=none;labelBorderColor=none;fontFamily=JetBrains Mono;" parent="1" vertex="1">
                    <mxGeometry x="240" y="320" width="40" height="40" as="geometry"/>
                </mxCell>
                <mxCell id="1411" value="&lt;span style=&quot;font-size: 16px;&quot;&gt;00&lt;/span&gt;" style="rounded=0;whiteSpace=wrap;html=1;fontSize=18;fillColor=#d5e8d4;strokeColor=#000000;fontColor=default;labelBackgroundColor=none;labelBorderColor=none;fontFamily=JetBrains Mono;" parent="1" vertex="1">
                    <mxGeometry x="280" y="320" width="40" height="40" as="geometry"/>
                </mxCell>
                <mxCell id="1412" value="&lt;span style=&quot;font-size: 16px;&quot;&gt;00&lt;/span&gt;" style="rounded=0;whiteSpace=wrap;html=1;fontSize=18;fillColor=#d5e8d4;strokeColor=#000000;fontColor=default;labelBackgroundColor=none;labelBorderColor=none;fontFamily=JetBrains Mono;" parent="1" vertex="1">
                    <mxGeometry x="320" y="320" width="40" height="40" as="geometry"/>
                </mxCell>
                <mxCell id="1413" value="&lt;span style=&quot;font-size: 16px;&quot;&gt;00&lt;/span&gt;" style="rounded=0;whiteSpace=wrap;html=1;fontSize=18;fillColor=#d5e8d4;strokeColor=#000000;fontColor=default;labelBackgroundColor=none;labelBorderColor=none;fontFamily=JetBrains Mono;" parent="1" vertex="1">
                    <mxGeometry x="360" y="320" width="40" height="40" as="geometry"/>
                </mxCell>
                <mxCell id="1414" value="&lt;font&gt;&lt;span style=&quot;font-size: 16px;&quot;&gt;00&lt;/span&gt;&lt;/font&gt;" style="rounded=0;whiteSpace=wrap;html=1;fontSize=18;fillColor=#d5e8d4;strokeColor=#000000;labelBackgroundColor=none;labelBorderColor=none;fontFamily=JetBrains Mono;" parent="1" vertex="1">
                    <mxGeometry x="400" y="320" width="40" height="40" as="geometry"/>
                </mxCell>
                <mxCell id="1415" value="&lt;font&gt;&lt;span style=&quot;font-size: 16px;&quot;&gt;40&lt;/span&gt;&lt;/font&gt;" style="rounded=0;whiteSpace=wrap;html=1;fontSize=18;fillColor=#d5e8d4;strokeColor=#000000;labelBackgroundColor=none;labelBorderColor=none;fontFamily=JetBrains Mono;" parent="1" vertex="1">
                    <mxGeometry x="440" y="320" width="40" height="40" as="geometry"/>
                </mxCell>
                <mxCell id="1416" value="&lt;font&gt;&lt;span style=&quot;font-size: 16px;&quot;&gt;19&lt;/span&gt;&lt;/font&gt;" style="rounded=0;whiteSpace=wrap;html=1;fontSize=18;fillColor=#d5e8d4;strokeColor=#000000;labelBackgroundColor=none;labelBorderColor=none;fontFamily=JetBrains Mono;" parent="1" vertex="1">
                    <mxGeometry x="480" y="320" width="40" height="40" as="geometry"/>
                </mxCell>
                <mxCell id="1417" value="&lt;span style=&quot;font-size: 16px;&quot;&gt;C5&lt;/span&gt;" style="rounded=0;whiteSpace=wrap;html=1;fontSize=18;fillColor=#d5e8d4;strokeColor=#000000;labelBackgroundColor=none;labelBorderColor=none;fontFamily=JetBrains Mono;" parent="1" vertex="1">
                    <mxGeometry x="520" y="320" width="40" height="40" as="geometry"/>
                </mxCell>
                <mxCell id="1418" value="&lt;span style=&quot;font-size: 16px;&quot;&gt;00&lt;/span&gt;" style="rounded=0;whiteSpace=wrap;html=1;fontSize=18;fillColor=#d5e8d4;strokeColor=#000000;fontColor=default;labelBackgroundColor=none;labelBorderColor=none;fontFamily=JetBrains Mono;" parent="1" vertex="1">
                    <mxGeometry x="240" y="280" width="40" height="40" as="geometry"/>
                </mxCell>
                <mxCell id="1419" value="&lt;span style=&quot;font-size: 16px;&quot;&gt;00&lt;/span&gt;" style="rounded=0;whiteSpace=wrap;html=1;fontSize=18;fillColor=#d5e8d4;strokeColor=#000000;fontColor=default;labelBackgroundColor=none;labelBorderColor=none;fontFamily=JetBrains Mono;" parent="1" vertex="1">
                    <mxGeometry x="280" y="280" width="40" height="40" as="geometry"/>
                </mxCell>
                <mxCell id="1420" value="&lt;span style=&quot;font-size: 16px;&quot;&gt;00&lt;/span&gt;" style="rounded=0;whiteSpace=wrap;html=1;fontSize=18;fillColor=#d5e8d4;strokeColor=#000000;fontColor=default;labelBackgroundColor=none;labelBorderColor=none;fontFamily=JetBrains Mono;" parent="1" vertex="1">
                    <mxGeometry x="320" y="280" width="40" height="40" as="geometry"/>
                </mxCell>
                <mxCell id="1421" value="&lt;span style=&quot;font-size: 16px;&quot;&gt;00&lt;/span&gt;" style="rounded=0;whiteSpace=wrap;html=1;fontSize=18;fillColor=#d5e8d4;strokeColor=#000000;fontColor=default;labelBackgroundColor=none;labelBorderColor=none;fontFamily=JetBrains Mono;" parent="1" vertex="1">
                    <mxGeometry x="360" y="280" width="40" height="40" as="geometry"/>
                </mxCell>
                <mxCell id="1422" value="&lt;font&gt;&lt;span style=&quot;font-size: 16px;&quot;&gt;00&lt;/span&gt;&lt;/font&gt;" style="rounded=0;whiteSpace=wrap;html=1;fontSize=18;fillColor=#d5e8d4;strokeColor=#000000;labelBackgroundColor=none;labelBorderColor=none;fontFamily=JetBrains Mono;" parent="1" vertex="1">
                    <mxGeometry x="400" y="280" width="40" height="40" as="geometry"/>
                </mxCell>
                <mxCell id="1423" value="&lt;font&gt;&lt;span style=&quot;font-size: 16px;&quot;&gt;40&lt;/span&gt;&lt;/font&gt;" style="rounded=0;whiteSpace=wrap;html=1;fontSize=18;fillColor=#d5e8d4;strokeColor=#000000;labelBackgroundColor=none;labelBorderColor=none;fontFamily=JetBrains Mono;" parent="1" vertex="1">
                    <mxGeometry x="440" y="280" width="40" height="40" as="geometry"/>
                </mxCell>
                <mxCell id="1424" value="&lt;font&gt;&lt;span style=&quot;font-size: 16px;&quot;&gt;18&lt;/span&gt;&lt;/font&gt;" style="rounded=0;whiteSpace=wrap;html=1;fontSize=18;fillColor=#d5e8d4;strokeColor=#000000;labelBackgroundColor=none;labelBorderColor=none;fontFamily=JetBrains Mono;" parent="1" vertex="1">
                    <mxGeometry x="480" y="280" width="40" height="40" as="geometry"/>
                </mxCell>
                <mxCell id="1425" value="&lt;span style=&quot;font-size: 16px;&quot;&gt;FA&lt;/span&gt;" style="rounded=0;whiteSpace=wrap;html=1;fontSize=18;fillColor=#d5e8d4;strokeColor=#000000;labelBackgroundColor=none;labelBorderColor=none;fontFamily=JetBrains Mono;" parent="1" vertex="1">
                    <mxGeometry x="520" y="280" width="40" height="40" as="geometry"/>
                </mxCell>
                <mxCell id="1501" value="&lt;div style=&quot;border-color: var(--border-color); font-size: 18px; text-align: left; line-height: 22px;&quot;&gt;&lt;span style=&quot;border-color: var(--border-color);&quot;&gt;movq %rsp,%rax&lt;/span&gt;&lt;/div&gt;&lt;div style=&quot;border-color: var(--border-color); font-size: 18px; text-align: left; line-height: 22px;&quot;&gt;&lt;span style=&quot;border-color: var(--border-color);&quot;&gt;ret&lt;/span&gt;&lt;/div&gt;" style="text;html=1;strokeColor=none;fillColor=none;align=center;verticalAlign=middle;whiteSpace=wrap;rounded=0;fontColor=#000000;fontFamily=JetBrains Mono;" parent="1" vertex="1">
                    <mxGeometry x="40" y="645" width="170" height="30" as="geometry"/>
                </mxCell>
                <mxCell id="1502" value="&lt;div style=&quot;border-color: var(--border-color); font-size: 18px; text-align: left; line-height: 22px;&quot;&gt;&lt;span style=&quot;border-color: var(--border-color);&quot;&gt;movq %rax,%rdi&lt;/span&gt;&lt;/div&gt;&lt;div style=&quot;border-color: var(--border-color); font-size: 18px; text-align: left; line-height: 22px;&quot;&gt;&lt;span style=&quot;border-color: var(--border-color);&quot;&gt;ret&lt;/span&gt;&lt;/div&gt;" style="text;html=1;strokeColor=none;fillColor=none;align=center;verticalAlign=middle;whiteSpace=wrap;rounded=0;fontColor=#000000;fontFamily=JetBrains Mono;" parent="1" vertex="1">
                    <mxGeometry x="40" y="605" width="170" height="30" as="geometry"/>
                </mxCell>
                <mxCell id="1504" style="edgeStyle=none;html=1;exitX=1;exitY=0.5;exitDx=0;exitDy=0;entryX=0;entryY=0.5;entryDx=0;entryDy=0;fontSize=18;fontFamily=JetBrains Mono;" parent="1" edge="1">
                    <mxGeometry relative="1" as="geometry">
                        <mxPoint x="200" y="619.79" as="sourcePoint"/>
                        <mxPoint x="240" y="619.79" as="targetPoint"/>
                    </mxGeometry>
                </mxCell>
                <mxCell id="1505" style="edgeStyle=none;html=1;exitX=1;exitY=0.5;exitDx=0;exitDy=0;entryX=0;entryY=0.5;entryDx=0;entryDy=0;fontSize=18;fontFamily=JetBrains Mono;" parent="1" edge="1">
                    <mxGeometry relative="1" as="geometry">
                        <mxPoint x="200" y="579.7899999999998" as="sourcePoint"/>
                        <mxPoint x="240" y="579.7899999999998" as="targetPoint"/>
                    </mxGeometry>
                </mxCell>
                <mxCell id="1506" style="edgeStyle=none;html=1;exitX=1;exitY=0.5;exitDx=0;exitDy=0;entryX=0;entryY=0.5;entryDx=0;entryDy=0;fontSize=18;fontFamily=JetBrains Mono;" parent="1" edge="1">
                    <mxGeometry relative="1" as="geometry">
                        <mxPoint x="200" y="499.78999999999985" as="sourcePoint"/>
                        <mxPoint x="240" y="499.78999999999985" as="targetPoint"/>
                    </mxGeometry>
                </mxCell>
                <mxCell id="1507" style="edgeStyle=none;html=1;exitX=1;exitY=0.5;exitDx=0;exitDy=0;entryX=0;entryY=0.5;entryDx=0;entryDy=0;fontSize=18;fontFamily=JetBrains Mono;" parent="1" edge="1">
                    <mxGeometry relative="1" as="geometry">
                        <mxPoint x="200" y="459.78999999999985" as="sourcePoint"/>
                        <mxPoint x="240" y="459.78999999999985" as="targetPoint"/>
                    </mxGeometry>
                </mxCell>
                <mxCell id="1508" style="edgeStyle=none;html=1;exitX=1;exitY=0.5;exitDx=0;exitDy=0;entryX=0;entryY=0.5;entryDx=0;entryDy=0;fontSize=18;fontFamily=JetBrains Mono;" parent="1" edge="1">
                    <mxGeometry relative="1" as="geometry">
                        <mxPoint x="200" y="419.78999999999985" as="sourcePoint"/>
                        <mxPoint x="240" y="419.78999999999985" as="targetPoint"/>
                    </mxGeometry>
                </mxCell>
                <mxCell id="1509" style="edgeStyle=none;html=1;exitX=1;exitY=0.5;exitDx=0;exitDy=0;entryX=0;entryY=0.5;entryDx=0;entryDy=0;fontSize=18;fontFamily=JetBrains Mono;" parent="1" edge="1">
                    <mxGeometry relative="1" as="geometry">
                        <mxPoint x="200" y="379.78999999999985" as="sourcePoint"/>
                        <mxPoint x="240" y="379.78999999999985" as="targetPoint"/>
                    </mxGeometry>
                </mxCell>
                <mxCell id="1510" style="edgeStyle=none;html=1;exitX=1;exitY=0.5;exitDx=0;exitDy=0;entryX=0;entryY=0.5;entryDx=0;entryDy=0;fontSize=18;fontFamily=JetBrains Mono;" parent="1" edge="1">
                    <mxGeometry relative="1" as="geometry">
                        <mxPoint x="200" y="339.78999999999985" as="sourcePoint"/>
                        <mxPoint x="240" y="339.78999999999985" as="targetPoint"/>
                    </mxGeometry>
                </mxCell>
                <mxCell id="1511" style="edgeStyle=none;html=1;exitX=1;exitY=0.5;exitDx=0;exitDy=0;entryX=0;entryY=0.5;entryDx=0;entryDy=0;fontSize=18;fontFamily=JetBrains Mono;" parent="1" edge="1">
                    <mxGeometry relative="1" as="geometry">
                        <mxPoint x="200" y="299.78999999999985" as="sourcePoint"/>
                        <mxPoint x="240" y="299.78999999999985" as="targetPoint"/>
                    </mxGeometry>
                </mxCell>
                <mxCell id="1512" value="&lt;div style=&quot;border-color: var(--border-color); font-size: 18px; text-align: left; line-height: 22px;&quot;&gt;popq %rax&lt;/div&gt;&lt;div style=&quot;border-color: var(--border-color); font-size: 18px; text-align: left; line-height: 22px;&quot;&gt;&lt;span style=&quot;border-color: var(--border-color);&quot;&gt;ret&lt;/span&gt;&lt;/div&gt;" style="text;html=1;strokeColor=none;fillColor=none;align=center;verticalAlign=middle;whiteSpace=wrap;rounded=0;fontColor=#000000;fontFamily=JetBrains Mono;" parent="1" vertex="1">
                    <mxGeometry x="90" y="565" width="120" height="30" as="geometry"/>
                </mxCell>
                <mxCell id="1513" value="&lt;div style=&quot;border-color: var(--border-color); font-size: 18px; text-align: left; line-height: 22px;&quot;&gt;&lt;span style=&quot;border-color: var(--border-color);&quot;&gt;movl %edx,%ecx&lt;/span&gt;&lt;/div&gt;&lt;div style=&quot;border-color: var(--border-color); font-size: 18px; text-align: left; line-height: 22px;&quot;&gt;&lt;span style=&quot;border-color: var(--border-color);&quot;&gt;ret&lt;/span&gt;&lt;/div&gt;" style="text;html=1;strokeColor=none;fillColor=none;align=center;verticalAlign=middle;whiteSpace=wrap;rounded=0;fontColor=#000000;fontFamily=JetBrains Mono;" parent="1" vertex="1">
                    <mxGeometry x="40" y="445" width="170" height="30" as="geometry"/>
                </mxCell>
                <mxCell id="1515" value="&lt;div style=&quot;border-color: var(--border-color); font-size: 18px; text-align: left; line-height: 22px;&quot;&gt;&lt;span style=&quot;border-color: var(--border-color);&quot;&gt;movl %eax,%edx&lt;/span&gt;&lt;/div&gt;&lt;div style=&quot;border-color: var(--border-color); font-size: 18px; text-align: left; line-height: 22px;&quot;&gt;&lt;span style=&quot;border-color: var(--border-color);&quot;&gt;ret&lt;/span&gt;&lt;/div&gt;" style="text;html=1;strokeColor=none;fillColor=none;align=center;verticalAlign=middle;whiteSpace=wrap;rounded=0;fontColor=#000000;fontFamily=JetBrains Mono;" parent="1" vertex="1">
                    <mxGeometry x="40" y="485" width="170" height="30" as="geometry"/>
                </mxCell>
                <mxCell id="1517" value="&lt;div style=&quot;border-color: var(--border-color); font-size: 18px; text-align: left; line-height: 22px;&quot;&gt;&lt;span style=&quot;border-color: var(--border-color);&quot;&gt;movq %rax,%rdi&lt;/span&gt;&lt;/div&gt;&lt;div style=&quot;border-color: var(--border-color); font-size: 18px; text-align: left; line-height: 22px;&quot;&gt;&lt;span style=&quot;border-color: var(--border-color);&quot;&gt;ret&lt;/span&gt;&lt;/div&gt;" style="text;html=1;strokeColor=none;fillColor=none;align=center;verticalAlign=middle;whiteSpace=wrap;rounded=0;fontColor=#000000;fontFamily=JetBrains Mono;" parent="1" vertex="1">
                    <mxGeometry x="40" y="325" width="170" height="30" as="geometry"/>
                </mxCell>
                <mxCell id="1518" value="&lt;div style=&quot;border-color: var(--border-color); font-size: 18px; text-align: left; line-height: 22px;&quot;&gt;&lt;span style=&quot;border-color: var(--border-color);&quot;&gt;movl %ecx,%esi&lt;/span&gt;&lt;/div&gt;&lt;div style=&quot;border-color: var(--border-color); font-size: 18px; text-align: left; line-height: 22px;&quot;&gt;&lt;span style=&quot;border-color: var(--border-color);&quot;&gt;ret&lt;/span&gt;&lt;/div&gt;" style="text;html=1;strokeColor=none;fillColor=none;align=center;verticalAlign=middle;whiteSpace=wrap;rounded=0;fontColor=#000000;fontFamily=JetBrains Mono;" parent="1" vertex="1">
                    <mxGeometry x="40" y="405" width="170" height="30" as="geometry"/>
                </mxCell>
                <mxCell id="1519" value="&lt;div style=&quot;border-color: var(--border-color); font-size: 18px; text-align: left; line-height: 22px;&quot;&gt;add_xy&lt;/div&gt;" style="text;html=1;strokeColor=none;fillColor=none;align=center;verticalAlign=middle;whiteSpace=wrap;rounded=0;fontColor=#000000;fontFamily=JetBrains Mono;" parent="1" vertex="1">
                    <mxGeometry x="120" y="365" width="90" height="30" as="geometry"/>
                </mxCell>
                <mxCell id="1520" value="&lt;div style=&quot;border-color: var(--border-color); font-size: 18px; text-align: left; line-height: 22px;&quot;&gt;touch3&lt;/div&gt;" style="text;html=1;strokeColor=none;fillColor=none;align=center;verticalAlign=middle;whiteSpace=wrap;rounded=0;fontColor=#000000;fontFamily=JetBrains Mono;" parent="1" vertex="1">
                    <mxGeometry x="120" y="285" width="90" height="30" as="geometry"/>
                </mxCell>
            </root>
        </mxGraphModel>
    </diagram>
</mxfile>